<?xml version="1.0" standalone="no"?>
<svg id="svg-output" xmlns="http://www.w3.org/2000/svg" height="498" width="568.7168805803572" style="shape-rendering: geometricprecision; text-rendering: geometricprecision; fill-rule: evenodd; clip-rule: evenodd;"><rect x="0" y="0" width="568.7168805803572" fill="#EAAF0F" height="198"></rect><rect x="6" y="6" rx="9" ry="9" width="556.7168805803572" height="186" stroke="#000000" style="fill: none; stroke-width: 6;"></rect><rect x="0" y="198" width="568.7168805803572" fill="#EAAF0F" height="114"></rect><rect x="6" y="204" rx="9" ry="9" width="556.7168805803572" height="102" stroke="#000000" style="fill: none; stroke-width: 6;"></rect><rect x="0" y="312" width="568.7168805803572" fill="#EAAF0F" height="186"></rect><rect x="6" y="318" rx="9" ry="9" width="556.7168805803572" height="174" stroke="#000000" style="fill: none; stroke-width: 6;"></rect><svg width="72" height="72" y="63" x="33" fill="#000000" textContent="" variant="" xmlns="http://www.w3.org/2000/svg" viewBox="0 0 240 240" class="injected-svg" dataSrc="blob:http://localhost:3000/f5b4e0c7-7ef4-4f76-bd3e-a559e992d3a0"><path d="M120.446 55.028h24.964c52.468 0 95.002 42.534 95.002 95.003v89.995h-70.001v-89.995c0-13.808-11.194-25.001-25.001-25.001h-24.964l8.983 50.945c.534 3.032-2.864 5.198-5.387 3.431L3.25 94.648c-3.07-2.15-4.941-4.826-1.07-8.58L124.043.847c2.523-1.766 5.921-.67 5.387 2.362z"></path></svg><svg viewBox="0 0 18.857142857142858 12" width="113.14285714285714" height="72" y="21" x="129" textContent="E 6" variant="green" customWidth="18.857142857142858"><rect x="0" y="0" width="18.857142857142858" height="12" fill="#009977"></rect><path d="M 0.25 1.7142857142857142 v -0.6642857142857141 a 0.8,0.8 0 0 1 0.8,-0.8 h 0.6642857142857141" fill="none" stroke="#ffffff" stroke-width="0.5"></path><path d="M 17.142857142857142 0.25 h 0.6642857142857141 a 0.8,0.8 0 0 1 0.8,0.8 v 0.6642857142857141" fill="none" stroke="#ffffff" stroke-width="0.5"></path><path d="M 18.607142857142858 10.285714285714286 v 0.6642857142857141 a 0.8,0.8 0 0 1 -0.8,0.8 h -0.6642857142857141" fill="none" stroke="#ffffff" stroke-width="0.5"></path><path d="M 1.7142857142857142 11.75 h -0.6642857142857141 a 0.8,0.8 0 0 1 -0.8,-0.8 v -0.6642857142857141" fill="none" stroke="#ffffff" stroke-width="0.5"></path><path d="M 18.607142857142858 3.4285714285714284 v 1.7142857142857142" fill="none" stroke="#ffffff" stroke-width="0.5"></path><path d="M 18.607142857142858 6.857142857142857 v 1.7142857142857142" fill="none" stroke="#ffffff" stroke-width="0.5"></path><path d="M 0.25 3.4285714285714284 v 1.7142857142857142" fill="none" stroke="#ffffff" stroke-width="0.5"></path><path d="M 0.25 6.857142857142857 v 1.7142857142857142" fill="none" stroke="#ffffff" stroke-width="0.5"></path><path d="M 3.4285714285714284 0.25 h 1.7142857142857142" fill="none" stroke="#ffffff" stroke-width="0.5"></path><path d="M 3.4285714285714284 11.75 h 1.7142857142857142" fill="none" stroke="#ffffff" stroke-width="0.5"></path><path d="M 6.857142857142857 0.25 h 1.7142857142857142" fill="none" stroke="#ffffff" stroke-width="0.5"></path><path d="M 6.857142857142857 11.75 h 1.7142857142857142" fill="none" stroke="#ffffff" stroke-width="0.5"></path><path d="M 10.285714285714285 0.25 h 1.7142857142857142" fill="none" stroke="#ffffff" stroke-width="0.5"></path><path d="M 10.285714285714285 11.75 h 1.7142857142857142" fill="none" stroke="#ffffff" stroke-width="0.5"></path><path d="M 13.714285714285714 0.25 h 1.7142857142857142" fill="none" stroke="#ffffff" stroke-width="0.5"></path><path d="M 13.714285714285714 11.75 h 1.7142857142857142" fill="none" stroke="#ffffff" stroke-width="0.5"></path><path d="M4.31 3.03L7.87 3.03L7.87 3.97L5.31 3.97L5.31 5.34L7.17 5.34L7.17 6.27L5.31 6.27L5.31 7.88L7.87 7.88L7.87 8.80L4.33 8.80L4.31 8.78L4.31 3.03ZM12.85 2.91L12.85 2.91Q13.60 2.93 14.13 3.43L14.13 3.43L13.56 4.11Q13.23 3.82 12.92 3.82L12.92 3.82L12.83 3.82Q12.38 3.82 12.07 4.32L12.07 4.32Q11.77 4.85 11.71 5.24L11.71 5.24L11.72 5.24Q12.20 4.90 12.72 4.90L12.72 4.90L12.77 4.90Q13.72 4.90 14.29 5.86L14.29 5.86Q14.53 6.42 14.53 6.92L14.53 6.92Q14.53 7.92 13.76 8.57L13.76 8.57Q13.25 8.93 12.61 8.93L12.61 8.93Q11.34 8.93 10.78 7.64L10.78 7.64Q10.59 7.09 10.59 6.42L10.59 6.42Q10.59 4.43 11.55 3.42L11.55 3.42Q12.07 2.91 12.85 2.91ZM11.60 6.92L11.60 6.92Q11.60 7.66 12.25 7.94L12.25 7.94Q12.46 7.99 12.58 7.99L12.58 7.99Q13.05 7.99 13.38 7.51L13.38 7.51Q13.52 7.28 13.52 6.91L13.52 6.91Q13.52 6.17 12.89 5.89L12.89 5.89Q12.70 5.85 12.58 5.85L12.58 5.85L12.57 5.85Q11.94 5.85 11.67 6.47L11.67 6.47Q11.60 6.67 11.60 6.92Z" fill="#ffffff"></path></svg><svg width="72" height="72" y="21" x="260.14285714285717" xmlns="http://www.w3.org/2000/svg" version="1.1" shape-rendering="geometricPrecision" text-rendering="geometricPrecision" image-rendering="optimizeQuality" fill-rule="evenodd" clip-rule="evenodd" viewBox="0 0 30000 30000" class="injected-svg" dataSrc="blob:http://bds-sign-generator.s3-website.eu-north-1.amazonaws.com/d728dc0f-b98f-48d3-bb97-b588ad1903fa"><g id="Layer_x0020_1"><metadata id="CorelCorpID_0Corel-Layer"></metadata><g id="_2609619581664"><path fill="#FEFEFE" stroke="#B2B2B2" stroke-width="7.62" stroke-linejoin="bevel" stroke-miterlimit="22.9256" d="M3000 30000l24000 0c796.15,-0.5 1559.49,-317.26 2122.1,-880.58 562.61,-563.32 878.4,-1323.27 877.9,-2119.42l0 -24000c-0.51,-796.15 -317.26,-1559.5 -880.58,-2122.1 -563.32,-562.62 -1323.27,-878.4 -2119.42,-877.9l-24000 0c-796.15,0.5 -1559.49,317.26 -2122.1,880.58 -562.61,563.32 -878.4,1323.27 -877.9,2119.42l0 24000c0.51,796.15 317.26,1559.5 880.58,2122.1 563.32,562.62 1323.27,878.4 2119.42,877.9z"></path><polygon fill="#ED3237" points="2000,19333.33 2000,10666.67 10666.67,10666.67 10666.67,2000 19333.33,2000 19333.33,10666.67 28000,10666.67 28000,19333.33 19333.33,19333.33 19333.33,28000 10666.67,28000 10666.67,19333.33 "></polygon></g></g></svg><svg viewBox="0 0 28.92900390625 12" width="173.5740234375" height="72" y="21" x="356.14285714285717" fill="#000000" textContent="Halden" variant=""><path d="M0.38 2.28L1.54 2.28L1.54 4.97L4.12 4.97L4.12 2.28L5.27 2.28L5.27 9L4.12 9L4.12 6.05L1.54 6.05L1.54 9L0.38 9L0.38 2.28ZM8.46 4.07L8.46 4.07L8.49 4.07Q9.86 4.07 10.36 5.25L10.36 5.25Q10.45 5.53 10.45 5.84L10.45 5.84L10.45 9L9.42 9L9.42 8.79Q8.91 9.13 8.30 9.13L8.30 9.13Q7.55 9.13 6.96 8.60L6.96 8.60Q6.51 8.13 6.51 7.54L6.51 7.54Q6.51 6.68 7.32 6.16L7.32 6.16Q7.67 5.99 8.04 5.99L8.04 5.99L9.42 5.99L9.42 5.81Q9.43 5.20 8.74 5.05L8.74 5.05Q8.08 4.92 7.01 5.25L7.01 5.25L6.72 4.42Q7.51 4.07 8.46 4.07ZM7.56 7.31L7.53 7.49Q7.53 7.92 7.98 8.08L7.98 8.08Q8.22 8.18 8.54 8.18L8.54 8.18Q8.99 8.18 9.44 7.88L9.44 7.88L9.44 6.85L8.17 6.85Q7.70 6.85 7.56 7.31L7.56 7.31ZM11.94 2.28L12.95 2.28L12.95 9L11.94 9L11.94 2.28ZM17.30 2.26L18.32 2.26L18.32 8.99L17.30 8.99L17.30 8.69Q16.77 9.12 16.14 9.12L16.14 9.12Q15.29 9.12 14.67 8.34L14.67 8.34Q14.19 7.59 14.19 6.55L14.19 6.55Q14.19 5.46 14.73 4.74L14.73 4.74Q15.35 4.06 16.08 4.06L16.08 4.06L16.21 4.06Q16.77 4.06 17.30 4.47L17.30 4.47L17.30 2.26ZM15.20 6.50L15.20 6.50L15.20 6.62Q15.23 7.74 15.80 8.04L15.80 8.04Q16.09 8.16 16.28 8.16L16.28 8.16Q16.94 8.16 17.23 7.55L17.23 7.55Q17.30 7.34 17.30 7.16L17.30 7.16L17.30 6.02Q17.30 5.25 16.49 5.03L16.49 5.03L16.27 5.00Q15.60 5.00 15.32 5.70L15.32 5.70Q15.20 6.09 15.20 6.50ZM21.67 4.06L21.67 4.06Q22.66 4.06 23.30 4.98L23.30 4.98Q23.73 5.60 23.74 6.80L23.74 6.80L20.67 6.80L20.67 6.88Q20.67 7.83 21.32 8.09L21.32 8.09Q21.50 8.16 21.64 8.16L21.64 8.16L21.75 8.16Q22.32 8.16 22.71 7.60L22.71 7.60L22.77 7.53L23.60 7.90Q23.29 8.58 22.59 8.93L22.59 8.93Q22.15 9.12 21.71 9.12L21.71 9.12Q20.75 9.12 20.08 8.28L20.08 8.28Q19.61 7.59 19.61 6.56L19.61 6.56Q19.61 5.42 20.19 4.71L20.19 4.71Q20.80 4.06 21.67 4.06ZM20.71 5.98L20.71 5.98L22.64 5.98L22.64 5.97Q22.64 5.43 22.13 5.13L22.13 5.13Q21.92 5.01 21.64 5.01L21.64 5.01Q21.10 5.01 20.78 5.62L20.78 5.62Q20.71 5.82 20.71 5.98ZM27.15 4.05L27.15 4.05Q28.13 4.07 28.67 4.91L28.67 4.91Q28.93 5.35 28.93 5.91L28.93 5.91L28.93 9L27.91 9L27.91 6.03Q27.91 5.43 27.37 5.14L27.37 5.14Q27.19 5.04 26.98 5.04L26.98 5.04L26.93 5.04Q26.36 5.04 26.08 5.64L26.08 5.64Q26.00 5.81 26.00 6.03L26.00 6.03L26.00 9L24.99 9L24.99 4.20L26.00 4.20L26.00 4.45Q26.51 4.05 27.15 4.05Z" fill="#000000"></path></svg><svg viewBox="0 0 18.857142857142858 12" width="113.14285714285714" height="72" y="105" x="129" customWidth="18.857142857142858" textContent="118" variant="white"><rect x="0" y="0" width="18.857142857142858" height="12" fill="#ffffff"></rect><rect x="0.45" y="0.45" rx="0.8" ry="0.8" width="17.95714285714286" height="11.1" pathLength="none" stroke="#000000" style="fill: none; stroke-width: 0.9;"></rect><path d="M4.48 3.74L5.19 3.03L6.12 3.03L6.12 8.80L5.10 8.80L5.10 4.39L4.48 4.75L4.48 3.74ZM7.45 3.74L8.16 3.03L9.10 3.03L9.10 8.80L8.08 8.80L8.08 4.39L7.45 4.75L7.45 3.74ZM12.41 2.93L12.41 2.93Q13.71 2.93 14.13 3.93L14.13 3.93Q14.24 4.20 14.24 4.50L14.24 4.50Q14.24 5.27 13.56 5.77L13.56 5.77L13.51 5.79Q14.04 6.07 14.30 6.75L14.30 6.75Q14.38 7.00 14.38 7.26L14.38 7.26Q14.38 8.14 13.54 8.69L13.54 8.69Q13.06 8.95 12.37 8.95L12.37 8.95Q11.00 8.95 10.53 7.84L10.53 7.84Q10.42 7.53 10.42 7.25L10.42 7.25Q10.42 6.38 11.24 5.83L11.24 5.83L11.29 5.79Q10.57 5.33 10.57 4.50L10.57 4.50Q10.57 3.51 11.57 3.04L11.57 3.04Q11.96 2.93 12.41 2.93ZM11.60 4.45L11.58 4.57L11.58 4.62Q11.58 5.10 12.11 5.31L12.11 5.31L12.27 5.33L12.51 5.33Q13.01 5.33 13.20 4.74L13.20 4.74L13.21 4.60Q13.21 4.07 12.65 3.90L12.65 3.90Q12.59 3.87 12.44 3.87L12.44 3.87L12.35 3.87Q11.76 3.87 11.60 4.45L11.60 4.45ZM11.44 7.15L11.44 7.15Q11.44 7.48 11.70 7.76L11.70 7.76Q11.95 8.01 12.35 8.01L12.35 8.01L12.44 8.01Q13.12 8.01 13.32 7.33L13.32 7.33L13.35 7.13Q13.35 6.62 12.79 6.34L12.79 6.34Q12.62 6.28 12.40 6.28L12.40 6.28L12.39 6.28Q11.76 6.28 11.52 6.77L11.52 6.77Q11.44 6.95 11.44 7.15Z" fill="#000000"></path></svg><svg viewBox="0 0 43.674609374999996 12" width="262.04765625" height="72" y="105" x="266.14285714285717" fill="#000000" textContent="Svinesund" variant=""><path d="M2.82 2.14L2.82 2.14Q3.97 2.14 4.97 2.78L4.97 2.78L4.29 3.62Q3.61 3.23 2.80 3.23L2.80 3.23Q1.96 3.28 1.72 3.76L1.72 3.76Q1.62 3.98 1.63 4.20L1.63 4.20Q1.71 4.68 2.15 4.82L2.15 4.82Q3.69 5.28 4.05 5.44L4.05 5.44Q5.14 6.03 5.14 7.21L5.14 7.21Q5.14 7.95 4.52 8.54L4.52 8.54Q3.86 9.13 2.68 9.13L2.68 9.13Q1.40 9.13 0.23 8.25L0.23 8.25L0.93 7.36Q1.74 8.04 2.80 8.04L2.80 8.04Q3.26 8.04 3.69 7.77L3.69 7.77Q3.97 7.51 3.97 7.17L3.97 7.17Q3.97 6.64 3.30 6.36L3.30 6.36Q1.90 6.01 1.46 5.77L1.46 5.77Q0.49 5.16 0.49 4.07L0.49 4.07Q0.49 3.17 1.28 2.56L1.28 2.56Q1.87 2.14 2.82 2.14ZM5.81 4.20L6.86 4.20L7.97 7.63L7.98 7.63L9.08 4.20L10.15 4.20L8.60 9L7.36 9L5.81 4.20ZM11.23 4.20L12.22 4.20L12.22 9L11.23 9L11.23 4.20ZM11.72 2.23L11.72 2.23Q11.86 2.23 11.99 2.30Q12.12 2.37 12.20 2.51Q12.27 2.64 12.27 2.78L12.27 2.78Q12.27 2.92 12.20 3.05Q12.13 3.18 12.00 3.25Q11.87 3.33 11.72 3.33L11.72 3.33Q11.58 3.33 11.45 3.25Q11.32 3.18 11.25 3.05Q11.18 2.92 11.18 2.78L11.18 2.78Q11.18 2.64 11.25 2.51Q11.33 2.37 11.46 2.30Q11.58 2.23 11.72 2.23ZM16.10 4.05L16.10 4.05Q17.08 4.07 17.62 4.91L17.62 4.91Q17.88 5.35 17.88 5.91L17.88 5.91L17.88 9L16.86 9L16.86 6.03Q16.86 5.43 16.31 5.14L16.31 5.14Q16.14 5.04 15.92 5.04L15.92 5.04L15.88 5.04Q15.31 5.04 15.03 5.64L15.03 5.64Q14.95 5.81 14.95 6.03L14.95 6.03L14.95 9L13.94 9L13.94 4.20L14.95 4.20L14.95 4.45Q15.46 4.05 16.10 4.05ZM21.03 4.06L21.03 4.06Q22.02 4.06 22.67 4.98L22.67 4.98Q23.09 5.60 23.10 6.80L23.10 6.80L20.04 6.80L20.04 6.88Q20.04 7.83 20.69 8.09L20.69 8.09Q20.87 8.16 21.01 8.16L21.01 8.16L21.11 8.16Q21.68 8.16 22.07 7.60L22.07 7.60L22.13 7.53L22.96 7.90Q22.66 8.58 21.96 8.93L21.96 8.93Q21.51 9.12 21.08 9.12L21.08 9.12Q20.12 9.12 19.45 8.28L19.45 8.28Q18.97 7.59 18.97 6.56L18.97 6.56Q18.97 5.42 19.55 4.71L19.55 4.71Q20.17 4.06 21.03 4.06ZM20.07 5.98L20.07 5.98L22.00 5.98L22.00 5.97Q22.00 5.43 21.49 5.13L21.49 5.13Q21.28 5.01 21.01 5.01L21.01 5.01Q20.46 5.01 20.15 5.62L20.15 5.62Q20.07 5.82 20.07 5.98ZM26.04 4.09L26.04 4.09Q26.99 4.09 27.76 4.70L27.76 4.70L27.19 5.39Q26.69 5.03 26.11 5.03L26.11 5.03L26.10 5.03Q25.32 5.06 25.26 5.46L25.26 5.46Q25.22 5.88 25.78 6.00L25.78 6.00Q26.87 6.25 27.30 6.54L27.30 6.54Q27.91 7.00 27.91 7.69L27.91 7.69Q27.91 8.50 27.11 8.95L27.11 8.95L27.02 9.00L26.90 9.04Q26.54 9.14 26.00 9.14L26.00 9.14Q24.88 9.14 23.98 8.37L23.98 8.37L24.68 7.65Q25.33 8.20 26.06 8.20L26.06 8.20Q26.85 8.22 26.88 7.71L26.88 7.71Q26.88 7.32 26.34 7.20L26.34 7.20Q25.23 6.92 24.94 6.75L24.94 6.75Q24.21 6.33 24.21 5.51L24.21 5.51Q24.24 4.82 24.88 4.37L24.88 4.37Q25.31 4.09 26.04 4.09ZM29.16 4.21L30.17 4.21L30.17 7.18Q30.17 7.86 30.84 8.12L30.84 8.12Q30.98 8.16 31.13 8.15L31.13 8.15Q31.74 8.16 32.03 7.51L32.03 7.51Q32.08 7.33 32.08 7.18L32.08 7.18L32.08 4.21L33.10 4.21L33.10 9.00L32.08 9.00L32.08 8.75Q31.57 9.15 30.94 9.15L30.94 9.15Q30.05 9.15 29.45 8.35L29.45 8.35Q29.16 7.91 29.16 7.28L29.16 7.28L29.16 4.21ZM36.69 4.05L36.69 4.05Q37.66 4.07 38.20 4.91L38.20 4.91Q38.46 5.35 38.46 5.91L38.46 5.91L38.46 9L37.45 9L37.45 6.03Q37.45 5.43 36.90 5.14L36.90 5.14Q36.72 5.04 36.51 5.04L36.51 5.04L36.46 5.04Q35.89 5.04 35.61 5.64L35.61 5.64Q35.54 5.81 35.54 6.03L35.54 6.03L35.54 9L34.52 9L34.52 4.20L35.54 4.20L35.54 4.45Q36.04 4.05 36.69 4.05ZM42.65 2.26L43.67 2.26L43.67 8.99L42.65 8.99L42.65 8.69Q42.12 9.12 41.49 9.12L41.49 9.12Q40.65 9.12 40.03 8.34L40.03 8.34Q39.54 7.59 39.54 6.55L39.54 6.55Q39.54 5.46 40.08 4.74L40.08 4.74Q40.70 4.06 41.44 4.06L41.44 4.06L41.56 4.06Q42.12 4.06 42.65 4.47L42.65 4.47L42.65 2.26ZM40.56 6.50L40.56 6.50L40.56 6.62Q40.58 7.74 41.15 8.04L41.15 8.04Q41.44 8.16 41.64 8.16L41.64 8.16Q42.29 8.16 42.58 7.55L42.58 7.55Q42.65 7.34 42.65 7.16L42.65 7.16L42.65 6.02Q42.65 5.25 41.84 5.03L41.84 5.03L41.62 5.00Q40.96 5.00 40.68 5.70L40.68 5.70Q40.56 6.09 40.56 6.50Z" fill="#000000"></path></svg><svg width="72" height="72" y="219" x="33" fill="#000000" textContent="" variant="" viewBox="-25 0 240 240" xmlns="http://www.w3.org/2000/svg" xmlspace="preserve"><path d="M129.908 239.702V118.853l55.945 9.865c3.242.356 4.997-3.223 3.583-5.507L99.957 2.557c-2.866-3.582-7.325-3.315-10.192.267L.952 122.719c-2.265 3.056-.137 6.24 2.704 6.284l56.25-10.15v120.849z"></path></svg><svg viewBox="0 0 31.606884765624997 12" width="189.64130859374998" height="72" y="219" x="129" fill="#000000" textContent="Jakarta" variant=""><path d="M2.97 2.28L4.12 2.28L4.12 7.02Q4.12 8.35 2.88 8.98L2.88 8.98Q2.46 9.15 2.02 9.15L2.02 9.15Q0.87 9.15 0 8.35L0 8.35L0.65 7.55Q1.30 8.06 2.04 8.06L2.04 8.06Q2.58 8.06 2.90 7.48L2.90 7.48Q2.97 7.29 2.97 7.16L2.97 7.16L2.97 2.28ZM7.31 4.07L7.31 4.07L7.34 4.07Q8.71 4.07 9.21 5.25L9.21 5.25Q9.30 5.53 9.30 5.84L9.30 5.84L9.30 9L8.28 9L8.28 8.79Q7.76 9.13 7.15 9.13L7.15 9.13Q6.40 9.13 5.81 8.60L5.81 8.60Q5.37 8.13 5.37 7.54L5.37 7.54Q5.37 6.68 6.17 6.16L6.17 6.16Q6.52 5.99 6.89 5.99L6.89 5.99L8.28 5.99L8.28 5.81Q8.29 5.20 7.59 5.05L7.59 5.05Q6.93 4.92 5.86 5.25L5.86 5.25L5.57 4.42Q6.36 4.07 7.31 4.07ZM6.41 7.31L6.38 7.49Q6.38 7.92 6.84 8.08L6.84 8.08Q7.07 8.18 7.39 8.18L7.39 8.18Q7.84 8.18 8.29 7.88L8.29 7.88L8.29 6.85L7.02 6.85Q6.55 6.85 6.41 7.31L6.41 7.31ZM10.79 2.28L11.81 2.28L11.81 5.84L13.49 4.20L14.92 4.20L12.87 6.22L14.92 9L13.68 9L12.14 6.94L11.81 7.27L11.81 9L10.79 9L10.79 2.28ZM17.32 4.07L17.32 4.07L17.35 4.07Q18.73 4.07 19.22 5.25L19.22 5.25Q19.31 5.53 19.31 5.84L19.31 5.84L19.31 9L18.29 9L18.29 8.79Q17.77 9.13 17.16 9.13L17.16 9.13Q16.41 9.13 15.83 8.60L15.83 8.60Q15.38 8.13 15.38 7.54L15.38 7.54Q15.38 6.68 16.18 6.16L16.18 6.16Q16.53 5.99 16.91 5.99L16.91 5.99L18.29 5.99L18.29 5.81Q18.30 5.20 17.60 5.05L17.60 5.05Q16.95 4.92 15.87 5.25L15.87 5.25L15.58 4.42Q16.37 4.07 17.32 4.07ZM16.42 7.31L16.39 7.49Q16.39 7.92 16.85 8.08L16.85 8.08Q17.08 8.18 17.40 8.18L17.40 8.18Q17.85 8.18 18.30 7.88L18.30 7.88L18.30 6.85L17.03 6.85Q16.57 6.85 16.42 7.31L16.42 7.31ZM22.88 4.11L22.88 4.11Q23.25 4.11 23.67 4.31L23.67 4.31L23.25 5.18Q23.06 5.04 22.75 5.04L22.75 5.04Q22.16 5.04 21.87 5.70L21.87 5.70Q21.82 5.87 21.82 6.01L21.82 6.01L21.82 9L20.80 9L20.80 4.20L21.82 4.20L21.82 4.51Q22.30 4.11 22.88 4.11ZM24.60 3.20L25.61 2.34L25.61 4.18L26.81 4.18L26.81 5.13L26.79 5.13L25.61 5.13L25.61 7.61Q25.61 8.03 25.81 8.13L25.81 8.13Q25.88 8.20 26.09 8.20L26.09 8.20Q26.30 8.20 26.48 8.14L26.48 8.14L26.81 9.00Q26.41 9.14 26.08 9.14L26.08 9.14Q25.22 9.14 24.74 8.40L24.74 8.40Q24.60 8.09 24.60 7.84L24.60 7.84L24.60 5.13L23.92 5.13L23.92 4.18L24.60 4.18L24.60 3.20ZM29.62 4.07L29.62 4.07L29.65 4.07Q31.02 4.07 31.52 5.25L31.52 5.25Q31.61 5.53 31.61 5.84L31.61 5.84L31.61 9L30.59 9L30.59 8.79Q30.07 9.13 29.46 9.13L29.46 9.13Q28.71 9.13 28.13 8.60L28.13 8.60Q27.68 8.13 27.68 7.54L27.68 7.54Q27.68 6.68 28.48 6.16L28.48 6.16Q28.83 5.99 29.21 5.99L29.21 5.99L30.59 5.99L30.59 5.81Q30.60 5.20 29.90 5.05L29.90 5.05Q29.24 4.92 28.17 5.25L28.17 5.25L27.88 4.42Q28.67 4.07 29.62 4.07ZM28.72 7.31L28.69 7.49Q28.69 7.92 29.15 8.08L29.15 8.08Q29.38 8.18 29.70 8.18L29.70 8.18Q30.15 8.18 30.60 7.88L30.60 7.88L30.60 6.85L29.33 6.85Q28.86 6.85 28.72 7.31L28.72 7.31Z" fill="#000000"></path></svg><svg width="72" height="72" y="369" x="33" fill="#000000" textContent="" variant="" xmlns="http://www.w3.org/2000/svg" viewBox="0 0 240 240" class="injected-svg" dataSrc="blob:http://localhost:3000/df14ac05-7290-4cae-bc4f-5f95c4543f81"><path d="M119.967 55.002H95.003A95.003 95.003 0 0 0 0 150.004V240h70.002v-89.996a25 25 0 0 1 25-25h24.965l-8.983 50.945a3.456 3.456 0 0 0 5.386 3.431l121.327-84.954a5.4 5.4 0 0 0 0-8.847L116.37.625a3.456 3.456 0 0 0-5.386 3.432z"></path></svg><svg viewBox="0 0 37.588964843750006 12" width="225.53378906250003" height="72" y="333" x="129" fill="#000000" textContent="Hamburg" variant=""><path d="M0.38 2.28L1.54 2.28L1.54 4.97L4.12 4.97L4.12 2.28L5.27 2.28L5.27 9L4.12 9L4.12 6.05L1.54 6.05L1.54 9L0.38 9L0.38 2.28ZM8.46 4.07L8.46 4.07L8.49 4.07Q9.86 4.07 10.36 5.25L10.36 5.25Q10.45 5.53 10.45 5.84L10.45 5.84L10.45 9L9.42 9L9.42 8.79Q8.91 9.13 8.30 9.13L8.30 9.13Q7.55 9.13 6.96 8.60L6.96 8.60Q6.51 8.13 6.51 7.54L6.51 7.54Q6.51 6.68 7.32 6.16L7.32 6.16Q7.67 5.99 8.04 5.99L8.04 5.99L9.42 5.99L9.42 5.81Q9.43 5.20 8.74 5.05L8.74 5.05Q8.08 4.92 7.01 5.25L7.01 5.25L6.72 4.42Q7.51 4.07 8.46 4.07ZM7.56 7.31L7.53 7.49Q7.53 7.92 7.98 8.08L7.98 8.08Q8.22 8.18 8.54 8.18L8.54 8.18Q8.99 8.18 9.44 7.88L9.44 7.88L9.44 6.85L8.17 6.85Q7.70 6.85 7.56 7.31L7.56 7.31ZM13.86 4.08L13.86 4.08L13.99 4.08Q14.63 4.08 15.09 4.67L15.09 4.67L15.16 4.79Q15.42 4.47 15.64 4.31L15.64 4.31Q16.07 4.06 16.51 4.06L16.51 4.06Q17.41 4.06 17.94 4.88L17.94 4.88Q18.15 5.24 18.15 5.77L18.15 5.77L18.15 9L17.13 9L17.13 5.86Q17.13 5.24 16.56 5.04L16.56 5.04L16.34 5.01Q15.85 5.01 15.59 5.52L15.59 5.52Q15.53 5.66 15.53 5.83L15.53 5.83L15.53 9L14.52 9L14.52 5.84Q14.52 5.20 13.84 5.03L13.84 5.03L13.72 5.01Q13.20 5.01 12.97 5.58L12.97 5.58Q12.93 5.73 12.93 5.86L12.93 5.86L12.93 9L11.91 9L11.91 4.20L12.93 4.20L12.93 4.49Q13.38 4.08 13.86 4.08ZM19.58 2.28L20.59 2.28L20.59 4.48Q21.11 4.07 21.74 4.07L21.74 4.07Q22.58 4.07 23.22 4.82L23.22 4.82Q23.51 5.22 23.60 5.76L23.60 5.76Q23.70 6.15 23.70 6.59L23.70 6.59Q23.70 7.59 23.24 8.35L23.24 8.35Q22.62 9.13 21.72 9.13L21.72 9.13Q21.12 9.13 20.59 8.71L20.59 8.71L20.59 9L19.58 9L19.58 2.28ZM20.59 6.03L20.59 6.03L20.59 7.18Q20.59 7.80 21.24 8.10L21.24 8.10Q21.40 8.17 21.65 8.17L21.65 8.17Q22.14 8.16 22.48 7.65L22.48 7.65Q22.69 7.15 22.69 6.61L22.69 6.61L22.69 6.53Q22.69 5.69 22.29 5.28L22.29 5.28Q21.98 5.03 21.65 5.03L21.65 5.03L21.54 5.03Q21.14 5.03 20.80 5.43L20.80 5.43Q20.59 5.71 20.59 6.03ZM24.94 4.21L25.96 4.21L25.96 7.18Q25.96 7.86 26.63 8.12L26.63 8.12Q26.77 8.16 26.92 8.15L26.92 8.15Q27.53 8.16 27.82 7.51L27.82 7.51Q27.87 7.33 27.87 7.18L27.87 7.18L27.87 4.21L28.88 4.21L28.88 9.00L27.87 9.00L27.87 8.75Q27.36 9.15 26.73 9.15L26.73 9.15Q25.84 9.15 25.24 8.35L25.24 8.35Q24.94 7.91 24.94 7.28L24.94 7.28L24.94 4.21ZM32.39 4.11L32.39 4.11Q32.76 4.11 33.18 4.31L33.18 4.31L32.76 5.18Q32.57 5.04 32.26 5.04L32.26 5.04Q31.67 5.04 31.38 5.70L31.38 5.70Q31.33 5.87 31.33 6.01L31.33 6.01L31.33 9L30.31 9L30.31 4.20L31.33 4.20L31.33 4.51Q31.80 4.11 32.39 4.11ZM35.44 4.05L35.44 4.05Q36.05 4.05 36.57 4.48L36.57 4.48L36.57 4.18L37.59 4.18L37.59 9.14Q37.59 10.35 36.45 10.87L36.45 10.87Q35.97 11.04 35.46 11.04L35.46 11.04Q34.63 11.04 33.60 10.58L33.60 10.58L33.60 10.57L34.00 9.72Q34.77 10.09 35.55 10.09L35.55 10.09Q36.06 10.09 36.43 9.71L36.43 9.71Q36.57 9.48 36.57 9.24L36.57 9.24L36.57 8.70Q36.04 9.12 35.42 9.12L35.42 9.12Q34.48 9.12 33.85 8.22L33.85 8.22Q33.54 7.71 33.47 6.89L33.47 6.89L33.46 6.59Q33.46 5.70 33.79 5.06L33.79 5.06Q34.41 4.05 35.44 4.05ZM34.47 6.65L34.47 6.65Q34.47 7.66 35.02 8.02L35.02 8.02Q35.30 8.17 35.56 8.17L35.56 8.17Q36.17 8.17 36.50 7.54L36.50 7.54Q36.57 7.33 36.57 7.14L36.57 7.14L36.57 6.01Q36.57 5.37 35.92 5.08L35.92 5.08Q35.78 5.03 35.61 5.03L35.61 5.03L35.53 5.03Q34.92 5.03 34.61 5.70L34.61 5.70Q34.47 6.17 34.47 6.65Z" fill="#000000"></path></svg><svg viewBox="0 0 37.056347656250004 12" width="222.3380859375" height="72" y="405" x="129" fill="#000000" textContent="Salzburg" variant=""><path d="M2.82 2.14L2.82 2.14Q3.97 2.14 4.97 2.78L4.97 2.78L4.29 3.62Q3.61 3.23 2.80 3.23L2.80 3.23Q1.96 3.28 1.72 3.76L1.72 3.76Q1.62 3.98 1.63 4.20L1.63 4.20Q1.71 4.68 2.15 4.82L2.15 4.82Q3.69 5.28 4.05 5.44L4.05 5.44Q5.14 6.03 5.14 7.21L5.14 7.21Q5.14 7.95 4.52 8.54L4.52 8.54Q3.86 9.13 2.68 9.13L2.68 9.13Q1.40 9.13 0.23 8.25L0.23 8.25L0.93 7.36Q1.74 8.04 2.80 8.04L2.80 8.04Q3.26 8.04 3.69 7.77L3.69 7.77Q3.97 7.51 3.97 7.17L3.97 7.17Q3.97 6.64 3.30 6.36L3.30 6.36Q1.90 6.01 1.46 5.77L1.46 5.77Q0.49 5.16 0.49 4.07L0.49 4.07Q0.49 3.17 1.28 2.56L1.28 2.56Q1.87 2.14 2.82 2.14ZM7.95 4.07L7.95 4.07L7.98 4.07Q9.36 4.07 9.85 5.25L9.85 5.25Q9.94 5.53 9.94 5.84L9.94 5.84L9.94 9L8.92 9L8.92 8.79Q8.40 9.13 7.79 9.13L7.79 9.13Q7.04 9.13 6.46 8.60L6.46 8.60Q6.01 8.13 6.01 7.54L6.01 7.54Q6.01 6.68 6.81 6.16L6.81 6.16Q7.16 5.99 7.54 5.99L7.54 5.99L8.92 5.99L8.92 5.81Q8.93 5.20 8.23 5.05L8.23 5.05Q7.57 4.92 6.50 5.25L6.50 5.25L6.21 4.42Q7.00 4.07 7.95 4.07ZM7.05 7.31L7.02 7.49Q7.02 7.92 7.48 8.08L7.48 8.08Q7.71 8.18 8.03 8.18L8.03 8.18Q8.48 8.18 8.93 7.88L8.93 7.88L8.93 6.85L7.66 6.85Q7.20 6.85 7.05 7.31L7.05 7.31ZM11.43 2.28L12.44 2.28L12.44 9L11.43 9L11.43 2.28ZM13.68 5.15L13.68 4.20L17.49 4.20L17.49 5.08L15.07 8.05L17.62 8.05L17.62 9L13.68 9L13.68 8.14L16.12 5.15L13.68 5.15ZM19.05 2.28L20.06 2.28L20.06 4.48Q20.58 4.07 21.21 4.07L21.21 4.07Q22.04 4.07 22.69 4.82L22.69 4.82Q22.98 5.22 23.07 5.76L23.07 5.76Q23.16 6.15 23.16 6.59L23.16 6.59Q23.16 7.59 22.71 8.35L22.71 8.35Q22.08 9.13 21.19 9.13L21.19 9.13Q20.58 9.13 20.06 8.71L20.06 8.71L20.06 9L19.05 9L19.05 2.28ZM20.06 6.03L20.06 6.03L20.06 7.18Q20.06 7.80 20.70 8.10L20.70 8.10Q20.87 8.17 21.12 8.17L21.12 8.17Q21.61 8.16 21.95 7.65L21.95 7.65Q22.16 7.15 22.16 6.61L22.16 6.61L22.16 6.53Q22.16 5.69 21.76 5.28L21.76 5.28Q21.44 5.03 21.12 5.03L21.12 5.03L21.01 5.03Q20.60 5.03 20.26 5.43L20.26 5.43Q20.06 5.71 20.06 6.03ZM24.41 4.21L25.43 4.21L25.43 7.18Q25.43 7.86 26.09 8.12L26.09 8.12Q26.24 8.16 26.38 8.15L26.38 8.15Q27.00 8.16 27.29 7.51L27.29 7.51Q27.34 7.33 27.34 7.18L27.34 7.18L27.34 4.21L28.35 4.21L28.35 9.00L27.34 9.00L27.34 8.75Q26.82 9.15 26.20 9.15L26.20 9.15Q25.31 9.15 24.71 8.35L24.71 8.35Q24.41 7.91 24.41 7.28L24.41 7.28L24.41 4.21ZM31.86 4.11L31.86 4.11Q32.22 4.11 32.64 4.31L32.64 4.31L32.23 5.18Q32.04 5.04 31.73 5.04L31.73 5.04Q31.13 5.04 30.84 5.70L30.84 5.70Q30.79 5.87 30.79 6.01L30.79 6.01L30.79 9L29.78 9L29.78 4.20L30.79 4.20L30.79 4.51Q31.27 4.11 31.86 4.11ZM34.91 4.05L34.91 4.05Q35.52 4.05 36.04 4.48L36.04 4.48L36.04 4.18L37.06 4.18L37.06 9.14Q37.06 10.35 35.92 10.87L35.92 10.87Q35.44 11.04 34.93 11.04L34.93 11.04Q34.10 11.04 33.07 10.58L33.07 10.58L33.07 10.57L33.47 9.72Q34.24 10.09 35.02 10.09L35.02 10.09Q35.53 10.09 35.89 9.71L35.89 9.71Q36.04 9.48 36.04 9.24L36.04 9.24L36.04 8.70Q35.51 9.12 34.89 9.12L34.89 9.12Q33.95 9.12 33.31 8.22L33.31 8.22Q33.01 7.71 32.93 6.89L32.93 6.89L32.92 6.59Q32.93 5.70 33.25 5.06L33.25 5.06Q33.88 4.05 34.91 4.05ZM33.94 6.65L33.94 6.65Q33.94 7.66 34.49 8.02L34.49 8.02Q34.77 8.17 35.03 8.17L35.03 8.17Q35.64 8.17 35.97 7.54L35.97 7.54Q36.04 7.33 36.04 7.14L36.04 7.14L36.04 6.01Q36.04 5.37 35.38 5.08L35.38 5.08Q35.25 5.03 35.08 5.03L35.08 5.03L34.99 5.03Q34.38 5.03 34.07 5.70L34.07 5.70Q33.94 6.17 33.94 6.65Z" fill="#000000"></path></svg></svg>